<svg width="120" height="90" viewBox="0 0 120 90" fill="none" xmlns="http://www.w3.org/2000/svg">
<g clip-path="url(#clip0_1_319)">
<rect width="120" height="90" fill="white"/>
<g clip-path="url(#clip1_1_319)">
<path d="M0 0H40V30H0" fill="#BD3D44"/>
<path d="M0 3.45625H40H0ZM0 8.0625H40H0ZM0 12.6875H40H0ZM0 17.3125H40H0ZM0 21.9375H40H0ZM0 26.5625H40H0Z" fill="black"/>
<path d="M0 3.45625H40M0 8.0625H40M0 12.6875H40M0 17.3125H40M0 21.9375H40M0 26.5625H40" stroke="white" stroke-width="2.3125"/>
<path d="M0 0H22.8V16.1562H0" fill="#192F5D"/>
</g>
<g clip-path="url(#clip2_1_319)">
<path d="M40 30H80V60H40V30Z" fill="#012169"/>
<path d="M44.6875 30L59.9375 41.3125L75.125 30H80V33.875L65 45.0625L80 56.1875V60H75L60 48.8125L45.0625 60H40V56.25L54.9375 45.125L40 34V30H44.6875Z" fill="white"/>
<path d="M66.5 47.5625L80 57.5V60L63.0625 47.5625H66.5ZM55 48.8125L55.375 51L43.375 60H40L55 48.8125ZM80 30V30.1875L64.4375 41.9375L64.5625 39.1875L76.875 30H80ZM40 30L54.9375 41H51.1875L40 32.625V30Z" fill="#C8102E"/>
<path d="M55.0625 30V60H65.0625V30H55.0625ZM40 40V50H80V40H40Z" fill="white"/>
<path d="M40 42.0625V48.0625H80V42.0625H40ZM57.0625 30V60H63.0625V30H57.0625Z" fill="#C8102E"/>
</g>
<g clip-path="url(#clip3_1_319)">
<path d="M0 50H40V60H0V50Z" fill="#FFCC00"/>
<path d="M0 30H40V40H0V30Z" fill="#000001"/>
<path d="M0 40H40V50H0V40Z" fill="#FF0000"/>
</g>
<g clip-path="url(#clip4_1_319)">
<path d="M49.3813 0H70.6125V30H49.375L49.3813 0Z" fill="white"/>
<path d="M38.7687 0H49.3812V30H38.7687V0ZM70.6125 0H81.225V30H70.6187L70.6125 0ZM52.5625 14.5L51.7312 14.775L55.5688 18.15C55.8625 19.0063 55.4688 19.2625 55.2188 19.7125L59.3813 19.1875L59.2812 23.375L60.15 23.3563L59.9562 19.1938L64.125 19.6938C63.8687 19.15 63.6375 18.8625 63.875 17.9937L67.7062 14.8062L67.0375 14.5562C66.4875 14.1312 67.275 12.5188 67.3875 11.5C67.3875 11.5 65.1562 12.2688 65.0125 11.8625L64.4375 10.7688L62.4 13.0063C62.1812 13.0625 62.0875 12.975 62.0312 12.7875L62.9688 8.1125L61.4813 8.95C61.3479 9.00417 61.2396 8.95833 61.1562 8.8125L59.7188 5.9375L58.2437 8.925C58.1271 9.02917 58.0229 9.04375 57.9312 8.96875L56.5 8.175L57.3563 12.8062C57.2875 12.9937 57.125 13.0438 56.9375 12.9438L54.9875 10.7375C54.7375 11.1438 54.5625 11.8063 54.225 11.9563C53.8875 12.1062 52.7562 11.675 52 11.5188C52.2625 12.4438 53.0625 13.9937 52.5625 14.5Z" fill="#D52B1E"/>
</g>
<g clip-path="url(#clip5_1_319)">
<path d="M80 0H120V30H80V0Z" fill="#00008B"/>
<path d="M82.3438 0L89.9688 5.65625L97.5625 0H100V1.9375L92.5 7.53125L100 13.0938V15H97.5L90 9.40625L82.5312 15H80V13.125L87.4688 7.5625L80 2V0H82.3438Z" fill="white"/>
<path d="M93.25 8.78125L100 13.75V15L91.5312 8.78125H93.25ZM87.5 9.40625L87.6875 10.5L81.6875 15H80L87.5 9.40625ZM100 0V0.09375L92.2188 5.96875L92.2812 4.59375L98.4375 0H100ZM80 0L87.4688 5.5H85.5938L80 1.3125V0Z" fill="#FF0000"/>
<path d="M87.5312 0V15H92.5312V0H87.5312ZM80 5V10H100V5H80Z" fill="white"/>
<path d="M80 6.03125V9.03125H100V6.03125H80ZM88.5312 0V15H91.5312V0H88.5312Z" fill="#FF0000"/>
<path d="M112.937 24.7938L111.656 24.9563L111.794 26.2375L110.869 25.3375L109.95 26.2438L110.075 24.9625L108.794 24.8125L109.875 24.1125L109.194 23.0188L110.419 23.425L110.85 22.2063L111.294 23.4188L112.512 23L111.844 24.1L112.937 24.7938ZM112.706 17.4688L112.875 16.6563L112.262 16.0938L113.087 16L113.431 15.2438L113.775 16L114.6 16.0938L113.987 16.6563L114.156 17.4688L113.431 17.0563L112.706 17.4688ZM106.2 13.7188L104.931 13.8563L105.044 15.125L104.144 14.2188L103.219 15.1L103.369 13.8313L102.106 13.6625L103.187 12.9875L102.531 11.8938L103.737 12.3188L104.187 11.125L104.606 12.3313L105.819 11.9375L105.137 13.0188L106.206 13.7188H106.2ZM118.938 11.6688L117.631 11.8375L117.775 13.1438L116.831 12.225L115.894 13.15L116.025 11.8375L114.719 11.6875L115.825 10.9688L115.131 9.85L116.381 10.2688L116.819 9.03125L117.269 10.2688L118.513 9.8375L117.825 10.9625L118.938 11.6688ZM112.931 6.45L111.637 6.59375L111.756 7.89375L110.837 6.96875L109.894 7.86875L110.044 6.575L108.75 6.4L109.856 5.7125L109.187 4.59375L110.419 5.025L110.875 3.80625L111.3 5.0375L112.537 4.63125L111.844 5.73125L112.931 6.45ZM94.625 24.1063L91.7625 24.4438L92.05 27.3125L90 25.2875L87.9375 27.3L88.2437 24.4313L85.3812 24.0688L87.8125 22.5188L86.3125 20.0563L89.0375 20.9938L90.025 18.2813L90.9937 21L93.725 20.0813L92.2062 22.5313L94.6312 24.1L94.625 24.1063Z" fill="white"/>
</g>
<g clip-path="url(#clip6_1_319)">
<path d="M0 60H13.3313V90H0V60Z" fill="#000091"/>
<path d="M13.3312 60H26.6687V90H13.3312V60Z" fill="white"/>
<path d="M26.6688 60H40V90H26.6688V60Z" fill="#E1000F"/>
</g>
<g clip-path="url(#clip7_1_319)">
<path d="M80 30H120V60H80V30Z" fill="#005293"/>
<path d="M91 30V42H80V48H91V60H97V48H120V42H97V30H91Z" fill="#FECB00"/>
</g>
<g clip-path="url(#clip8_1_319)">
<path d="M40 60H80V90H40V60Z" fill="#ED2939"/>
<path d="M51.25 60H58.75V90H51.25V60Z" fill="white"/>
<path d="M40 71.25H80V78.75H40V71.25Z" fill="white"/>
<path d="M53.125 60H56.875V90H53.125V60Z" fill="#002664"/>
<path d="M40 73.125H80V76.875H40V73.125Z" fill="#002664"/>
</g>
<g clip-path="url(#clip9_1_319)">
<path fill-rule="evenodd" clip-rule="evenodd" d="M80 60H120V90H80V60Z" fill="white"/>
<path fill-rule="evenodd" clip-rule="evenodd" d="M80 60H93.3313V90H80V60Z" fill="#009246"/>
<path fill-rule="evenodd" clip-rule="evenodd" d="M106.669 60H120V90H106.669V60Z" fill="#CE2B37"/>
</g>
</g>
<defs>
<clipPath id="clip0_1_319">
<rect width="120" height="90" fill="white"/>
</clipPath>
<clipPath id="clip1_1_319">
<rect width="40" height="30" fill="white"/>
</clipPath>
<clipPath id="clip2_1_319">
<rect width="40" height="30" fill="white" transform="translate(40 30)"/>
</clipPath>
<clipPath id="clip3_1_319">
<rect width="40" height="30" fill="white" transform="translate(0 30)"/>
</clipPath>
<clipPath id="clip4_1_319">
<rect width="40" height="30" fill="white" transform="translate(40)"/>
</clipPath>
<clipPath id="clip5_1_319">
<rect width="40" height="30" fill="white" transform="translate(80)"/>
</clipPath>
<clipPath id="clip6_1_319">
<rect width="40" height="30" fill="white" transform="translate(0 60)"/>
</clipPath>
<clipPath id="clip7_1_319">
<rect width="40" height="30" fill="white" transform="translate(80 30)"/>
</clipPath>
<clipPath id="clip8_1_319">
<rect width="40" height="30" fill="white" transform="translate(40 60)"/>
</clipPath>
<clipPath id="clip9_1_319">
<rect width="40" height="30" fill="white" transform="translate(80 60)"/>
</clipPath>
</defs>
</svg>
