<?xml version="1.0" encoding="UTF-8"?>
<svg width="123px" height="119px" viewBox="0 0 123 119" version="1.1" xmlns="http://www.w3.org/2000/svg" xmlns:xlink="http://www.w3.org/1999/xlink">
    <title>speaker-icon</title>
    <g id="Page-1" stroke="none" stroke-width="1" fill="none" fill-rule="evenodd">
        <g id="Graphic" transform="translate(-78, -81)" fill="#FFFFFF">
            <g id="speaker-icon" transform="translate(66, 81)">
                <path d="M27.1591187,87.9688108 L47.5265503,87.9534912 L47.5265503,77.8720093 L28.2295227,77.8720093 C26.3389587,77.8720093 24.9193827,77.3899587 23.9707947,76.4258575 C23.0222066,75.4617564 22.5479126,74.0720622 22.5479126,72.2567749 L22.5479126,15.9922791 C22.5479126,14.1769918 23.0222066,12.7872976 23.9707947,11.8231964 C24.9193827,10.8590953 26.3389587,10.3770447 28.2295227,10.3770447 L55.3344727,10.3770447 C55.6889852,10.3770447 55.9654236,10.4659271 56.1637878,10.643692 C56.3621521,10.8214569 56.4829508,11.0662333 56.5261841,11.3780212 C56.5806071,11.4222717 56.6271464,11.4833069 56.665802,11.5611267 C56.7044576,11.6389465 56.7400614,11.6890462 56.7726135,11.7114258 C58.501943,10.099589 60.2923075,8.86884054 62.1437073,8.0191803 C63.995107,7.16952006 66.093572,6.60583496 68.4391022,6.328125 C70.7846324,6.05041504 73.5514323,5.94411214 76.739502,6.00921631 C76.6850789,5.92173258 76.6334534,5.81212362 76.5846252,5.6803894 C76.5357971,5.54865519 76.495107,5.43904622 76.4625549,5.3515625 C75.3318787,3.66750081 73.7725576,2.40127563 71.7845917,1.55288696 C69.7966258,0.704498291 67.5231934,0.280303955 64.9642944,0.280303955 L27.1591187,0.280303955 C22.3866781,0.280303955 18.7422434,1.54703776 16.2258148,4.08050537 C13.7093862,6.61397298 12.4511719,10.2778625 12.4511719,15.0721741 L12.4511719,73.1608582 C12.4511719,77.9551697 13.7093862,81.6242727 16.2258148,84.1681671 C18.7422434,86.7120616 22.3866781,87.9789225 27.1591187,87.9688108 Z M29.094696,56.2434387 C29.094696,59.3664042 29.8540751,62.2092438 31.3728333,64.7719574 C32.8915914,67.334671 34.921519,69.3830363 37.462616,70.9170532 C40.003713,72.4510701 42.8415934,73.2180786 45.9762573,73.2180786 C46.2209066,73.2180786 46.4792887,73.2068888 46.7514038,73.1845093 C47.0235189,73.1621297 47.281901,73.1400045 47.5265503,73.1181335 L47.5265503,62.4468994 C46.9706217,62.6030477 46.442922,62.6811218 45.9434509,62.6811218 C44.1795349,62.6811218 42.6867167,62.0572917 41.4649963,60.8096313 C40.243276,59.561971 39.6324158,58.0622864 39.6324158,56.3105774 C39.6324158,54.5364889 40.243276,53.0256144 41.4649963,51.7779541 C42.6867167,50.5302938 44.1795349,49.9064636 45.9434509,49.9064636 C46.442922,49.9064636 46.9706217,49.9842834 47.5265503,50.1399231 L47.5265503,39.4511414 C47.2717285,39.4292704 47.0134735,39.4071452 46.7517853,39.3847656 C46.490097,39.3623861 46.2315877,39.3511963 45.9762573,39.3511963 C42.851766,39.3511963 40.0189718,40.112737 37.4778748,41.6358185 C34.9367778,43.1588999 32.904307,45.2016703 31.3804626,47.7641296 C29.8566182,50.3265889 29.094696,53.1530253 29.094696,56.2434387 Z M36.125946,25.2322388 C36.125946,27.9579671 37.0737712,30.2865855 38.9694214,32.2180939 C40.8650716,34.1496023 43.1655884,35.1412964 45.8709717,35.1931763 C46.4238485,35.1931763 46.975708,35.142568 47.5265503,35.0413513 L47.5578308,29.2987061 C47.0598857,29.5209757 46.5337118,29.6321106 45.9793091,29.6321106 C44.7840373,29.5909119 43.7749227,29.1486613 42.9519653,28.3053589 C42.129008,27.4620565 41.7175293,26.4323425 41.7175293,25.216217 C41.7175293,24.0122986 42.1418508,22.986145 42.9904938,22.1377563 C43.8391368,21.2893677 44.8816935,20.8651733 46.1181641,20.8651733 C47.1008301,20.8651733 47.9293823,21.1706034 48.6038208,21.7814636 C49.0458171,19.8914083 49.7192383,18.1450399 50.6240845,16.5423584 C49.969991,16.1791992 49.2605845,15.8820343 48.4958649,15.6508636 C47.7311452,15.419693 46.933492,15.3041077 46.1029053,15.3041077 C43.3359782,15.3041077 40.9814199,16.2752024 39.0392303,18.217392 C37.0970408,20.1595815 36.125946,22.4978638 36.125946,25.2322388 Z M55.0666809,29.2254639 L55.0666809,102.673645 C55.0666809,107.747701 56.3915253,111.628901 59.041214,114.317245 C61.6909027,117.00559 65.5469259,118.349762 70.6092834,118.349762 L119.415283,118.349762 C124.489848,118.349762 128.351974,117.00559 131.001663,114.317245 C133.651352,111.628901 134.976196,107.747701 134.976196,102.673645 L134.976196,29.2254639 C134.976196,24.1285197 133.651352,20.2415975 131.001663,17.5646973 C128.351974,14.887797 124.489848,13.5493469 119.415283,13.5493469 L70.6092834,13.5493469 C65.5469259,13.5493469 61.6909027,14.887797 59.041214,17.5646973 C56.3915253,20.2415975 55.0666809,24.1285197 55.0666809,29.2254639 Z M66.2368774,30.219574 C66.2368774,28.3869934 66.6851044,27.0120494 67.5815582,26.0947418 C68.4780121,25.1774343 69.8743184,24.7187805 71.7704773,24.7187805 L118.287659,24.7187805 C120.173645,24.7187805 121.567408,25.1774343 122.468948,26.0947418 C123.370488,27.0120494 123.821259,28.3869934 123.821259,30.219574 L123.821259,101.678772 C123.821259,103.489482 123.364894,104.858958 122.452164,105.787201 C121.539434,106.715444 120.151265,107.179565 118.287659,107.179565 L71.7704773,107.179565 C69.896698,107.179565 68.5059865,106.715444 67.5983429,105.787201 C66.6906993,104.858958 66.2368774,103.489482 66.2368774,101.678772 L66.2368774,30.219574 Z M95.0050354,100.199432 C98.6111959,100.199432 101.894379,99.3279012 104.854584,97.5848389 C107.814789,95.8417765 110.174688,93.4900157 111.93428,90.5295563 C113.693873,87.5690969 114.573669,84.2857869 114.573669,80.6796265 C114.573669,77.0409139 113.693873,73.7469228 111.93428,70.7976532 C110.174688,67.8483836 107.814789,65.5047607 104.854584,63.7667847 C101.894379,62.0288086 98.6111959,61.1598206 95.0050354,61.1598206 C91.3983663,61.1272685 88.1205241,61.9855754 85.1715088,63.7347412 C82.2224935,65.4839071 79.8708598,67.8356679 78.1166077,70.7900238 C76.3623556,73.7443797 75.4852295,77.0409139 75.4852295,80.6796265 C75.4852295,84.2857869 76.3623556,87.5690969 78.1166077,90.5295563 C79.8708598,93.4900157 82.2224935,95.8417765 85.1715088,97.5848389 C88.1205241,99.3279012 91.3983663,100.199432 95.0050354,100.199432 Z M95.0050354,88.0290222 C92.9924011,88.0290222 91.261673,87.3127492 89.812851,85.8802032 C88.3640289,84.4476573 87.6396179,82.7141317 87.6396179,80.6796265 C87.6396179,78.547465 88.3529663,76.778717 89.7796631,75.3733826 C91.2063599,73.9680481 92.9481506,73.2653809 95.0050354,73.2653809 C97.0939636,73.2653809 98.849233,73.9680481 100.270844,75.3733826 C101.692454,76.778717 102.403259,78.547465 102.403259,80.6796265 C102.403259,82.7141317 101.692454,84.4476573 100.270844,85.8802032 C98.849233,87.3127492 97.0939636,88.0290222 95.0050354,88.0290222 Z M94.9890137,54.4032288 C97.1120199,54.4032288 99.048233,53.8968913 100.797653,52.8842163 C102.547073,51.8715413 103.939184,50.5013021 104.973984,48.7734985 C106.008784,47.045695 106.515249,45.1152039 106.493378,42.9820251 C106.460826,39.7863261 105.334218,37.0893351 103.113556,34.8910522 C100.892893,32.6927694 98.1847127,31.5773519 94.9890137,31.5447998 C92.888387,31.5224202 90.974172,32.025706 89.2463684,33.054657 C87.5185649,34.083608 86.139679,35.4590607 85.1097107,37.181015 C84.0797424,38.9029694 83.5647583,40.8366394 83.5647583,42.9820251 C83.5647583,45.1152039 84.0741475,47.045695 85.092926,48.7734985 C86.1117045,50.5013021 87.4905904,51.8715413 89.2295837,52.8842163 C90.9685771,53.8968913 92.888387,54.4032288 94.9890137,54.4032288 Z M95.0050354,47.8106689 C93.6795553,47.8106689 92.5458272,47.3342133 91.6038513,46.3813019 C90.6618754,45.4283905 90.1908875,44.2952983 90.1908875,42.9820251 C90.1908875,41.5914408 90.6618754,40.4363505 91.6038513,39.5167542 C92.5458272,38.5971578 93.6795553,38.1373596 95.0050354,38.1373596 C96.3300069,38.1373596 97.4716187,38.6052958 98.4298706,39.5411682 C99.3881226,40.4770406 99.8672485,41.6239929 99.8672485,42.9820251 C99.8672485,44.2952983 99.3962606,45.4283905 98.4542847,46.3813019 C97.5123088,47.3342133 96.362559,47.8106689 95.0050354,47.8106689 Z" id="Shape" fill-rule="nonzero"></path>
            </g>
        </g>
    </g>
</svg>